<?xml version="1.0" standalone="no"?>
<!DOCTYPE svg PUBLIC "-//W3C//DTD SVG 20010904//EN"
 "http://www.w3.org/TR/2001/REC-SVG-20010904/DTD/svg10.dtd">
<svg version="1.0" xmlns="http://www.w3.org/2000/svg"
 width="591.000000pt" height="649.000000pt" viewBox="0 0 591.000000 649.000000"
 preserveAspectRatio="xMidYMid meet">

<g transform="translate(0.000000,649.000000) scale(0.100000,-0.100000)"
fill="#000000" stroke="none">
<path d="M0 3245 l0 -3245 2955 0 2955 0 0 3245 0 3245 -2955 0 -2955 0 0
-3245z m3145 2979 c253 -68 445 -252 527 -506 25 -79 30 -109 31 -203 1 -104
-13 -200 -36 -255 -12 -29 -14 -36 -16 -52 -1 -10 -4 -9 -10 1 -5 8 -8 19 -7
25 2 6 1 8 -1 4 -11 -19 -21 -6 -17 19 3 15 2 24 -2 21 -3 -4 -8 -20 -9 -37
-2 -23 1 -28 14 -24 9 3 0 -8 -19 -25 -19 -16 -31 -34 -27 -38 4 -5 12 -2 16
5 5 7 14 10 21 6 6 -4 17 0 24 10 11 15 54 16 526 12 491 -3 519 -5 599 -25
119 -32 194 -74 281 -162 81 -81 126 -158 154 -265 33 -124 37 -368 33 -2175
-4 -1992 1 -1864 -78 -2029 -31 -66 -55 -100 -112 -155 -86 -85 -163 -128
-283 -158 l-89 -23 -1710 0 c-1588 0 -1715 1 -1785 17 -121 28 -213 80 -300
167 -116 117 -160 224 -179 438 -5 54 -8 918 -7 1938 2 1678 4 1847 19 1922
21 103 40 151 90 230 77 125 219 223 372 259 59 14 152 18 585 21 467 4 515 3
526 -12 8 -10 14 -12 19 -6 3 6 0 11 -7 11 -11 0 -11 2 0 9 10 6 10 10 -3 21
-13 11 -15 10 -9 -6 5 -13 4 -16 -4 -9 -18 17 -51 133 -63 221 -19 148 21 336
102 469 106 176 302 312 504 351 86 17 246 11 330 -12z m490 -1034 c-3 -5 -14
-10 -23 -10 -15 0 -15 2 -2 10 20 13 33 13 25 0z"/>
<path d="M2720 5298 c0 -6 3 -8 7 -5 3 4 12 -1 20 -11 13 -15 13 -15 3 6 -11
23 -30 30 -30 10z"/>
<path d="M2733 5255 c0 -8 4 -12 9 -9 5 3 6 10 3 15 -9 13 -12 11 -12 -6z"/>
<path d="M2776 5262 c-3 -4 4 -9 15 -9 23 -2 25 3 4 10 -8 4 -16 3 -19 -1z"/>
<path d="M2263 5236 c-3 -5 -1 -6 5 -2 6 3 13 2 17 -4 9 -14 22 -12 22 3 0 15
-36 17 -44 3z"/>
<path d="M2848 5230 c25 -24 29 -24 29 -5 0 8 -4 12 -8 9 -4 -2 -10 0 -14 6
-3 5 -11 10 -17 10 -7 0 -2 -9 10 -20z"/>
<path d="M2783 5230 c3 -10 -2 -16 -14 -17 -10 -1 -19 2 -19 8 0 5 -7 9 -16 9
-8 0 -12 -4 -9 -10 4 -6 -12 -10 -39 -10 -25 0 -46 5 -46 10 0 6 -18 10 -40
10 -22 0 -40 -4 -40 -10 0 -14 -157 -13 -166 1 -4 8 -9 7 -16 -2 -7 -11 -11
-11 -15 -1 -7 17 -40 15 -47 -4 -4 -10 -2 -13 7 -9 6 4 3 -1 -7 -9 -12 -9 -14
-16 -7 -16 9 0 8 -5 -3 -16 -15 -14 -15 -18 1 -45 10 -16 21 -29 25 -29 4 0 7
-6 6 -12 -2 -7 2 -12 9 -11 7 2 10 -3 8 -10 -6 -16 42 -70 55 -62 5 3 7 0 4
-8 -3 -8 9 -25 28 -41 18 -15 41 -34 50 -42 98 -79 237 -136 373 -155 243 -32
515 76 665 263 26 32 30 42 19 54 -10 12 -14 12 -20 2 -6 -8 -9 -9 -9 -2 0 6
8 18 17 25 9 8 14 9 10 3 -4 -7 -1 -17 7 -23 10 -9 17 -6 30 14 9 14 14 31 10
37 -4 6 -3 8 3 5 6 -4 13 -1 16 7 8 19 -4 28 -19 15 -10 -8 -20 -6 -40 10
l-27 21 26 0 c13 0 27 6 30 14 7 17 -30 18 -52 2 -11 -8 -13 -8 -7 2 6 9 -45
12 -238 12 -157 0 -246 4 -246 10 0 6 -9 10 -20 10 -11 0 -20 -5 -20 -11 0 -6
-10 -10 -22 -9 -55 5 -98 -1 -112 -15 -25 -25 -45 -17 -75 30 -7 11 -10 13 -8
5z m-143 -30 c0 -5 -18 -10 -40 -10 -22 0 -40 5 -40 10 0 6 18 10 40 10 22 0
40 -4 40 -10z m891 -63 c-10 -9 -11 -8 -5 6 3 10 9 15 12 12 3 -3 0 -11 -7
-18z m49 -27 c0 -5 -5 -10 -11 -10 -5 0 -7 5 -4 10 3 6 8 10 11 10 2 0 4 -4 4
-10z"/>
<path d="M1575 4434 c-53 -20 -111 -78 -132 -133 -15 -38 -18 -79 -18 -241 0
-190 1 -197 26 -245 33 -65 93 -110 165 -125 36 -8 118 -10 223 -8 194 5 229
15 291 85 54 62 62 109 58 328 -3 165 -5 184 -27 228 -25 52 -71 92 -128 113
-55 19 -403 18 -458 -2z m448 -107 c58 -38 62 -54 62 -257 0 -176 -1 -187 -23
-222 -33 -54 -65 -60 -279 -56 l-183 3 -32 33 -33 32 -3 195 c-3 161 -1 199
13 224 31 60 72 71 280 68 144 -2 175 -5 198 -20z"/>
<path d="M1668 4211 l-33 -29 0 -109 c0 -87 4 -114 17 -136 25 -36 84 -51 188
-44 79 5 86 7 112 36 27 30 28 36 28 132 0 160 -19 179 -180 179 -96 0 -101
-1 -132 -29z"/>
<path d="M2497 4432 c-12 -13 -17 -37 -17 -85 0 -101 9 -107 160 -107 107 0
122 2 140 20 37 37 18 75 -45 88 -36 7 -40 12 -45 43 -10 56 -14 59 -99 59
-63 0 -81 -4 -94 -18z"/>
<path d="M2816 4434 c-34 -33 -8 -84 43 -84 33 0 46 -14 50 -55 4 -43 26 -55
101 -55 86 0 118 25 99 77 -5 15 -20 24 -51 30 -40 8 -43 11 -49 47 -3 21 -12
42 -20 47 -25 16 -156 11 -173 -7z"/>
<path d="M3132 4438 c-15 -15 -16 -60 0 -76 7 -7 42 -12 88 -12 65 0 80 3 96
21 17 19 17 23 3 47 -14 25 -20 27 -94 30 -54 2 -84 -1 -93 -10z"/>
<path d="M3888 4438 c-54 -14 -123 -79 -145 -136 -15 -39 -18 -77 -18 -227 0
-200 9 -251 56 -308 16 -19 50 -46 76 -59 46 -22 58 -23 253 -23 l205 0 53 29
c61 34 108 98 117 160 4 23 5 125 3 226 -3 169 -5 189 -25 227 -26 48 -76 89
-130 109 -45 16 -387 18 -445 2z m439 -114 c55 -40 63 -72 62 -254 0 -188 -8
-224 -58 -257 -32 -22 -43 -23 -220 -23 -205 0 -221 4 -258 59 -22 32 -23 43
-23 212 0 187 5 214 42 248 36 35 73 40 255 38 156 -2 174 -4 200 -23z"/>
<path d="M3970 4212 c-32 -33 -33 -38 -32 -170 0 -58 5 -91 16 -107 22 -34 85
-48 185 -43 80 4 85 6 113 37 30 33 30 33 26 147 -4 155 -7 158 -163 162
l-115 4 -30 -30z"/>
<path d="M3462 4334 c-56 -39 -4 -118 53 -80 30 20 32 49 5 76 -24 24 -29 24
-58 4z"/>
<path d="M2285 4220 c-27 -29 -10 -74 28 -78 37 -4 57 13 57 49 0 47 -53 65
-85 29z"/>
<path d="M3136 4224 c-9 -8 -16 -28 -16 -44 0 -40 -23 -50 -113 -50 -93 0
-100 -6 -98 -102 1 -95 8 -102 119 -108 l87 -5 3 -86 c2 -72 6 -90 23 -105 19
-17 23 -17 47 -3 18 10 28 25 30 44 5 41 19 55 56 55 39 0 56 -15 56 -51 0
-27 30 -59 57 -59 21 0 43 31 43 59 0 38 21 53 67 49 l38 -3 0 -50 c0 -49 0
-50 -35 -55 -50 -8 -60 -17 -60 -50 0 -32 33 -62 56 -53 20 7 44 -15 44 -41 0
-12 7 -32 16 -44 13 -19 24 -22 89 -22 80 0 105 13 105 54 0 29 -18 46 -49 46
-49 0 -51 8 -54 152 -1 97 -6 140 -16 151 -10 13 -31 17 -95 17 -50 0 -87 5
-94 12 -8 8 -12 56 -12 150 0 126 -2 138 -19 148 -11 5 -74 10 -140 10 -95 0
-123 -3 -135 -16z m182 -96 c7 -7 12 -44 12 -98 0 -95 -7 -110 -55 -110 -48 0
-55 15 -55 110 0 95 7 110 55 110 17 0 36 -5 43 -12z"/>
<path d="M3556 4221 c-25 -27 -14 -69 19 -77 50 -12 83 24 62 67 -16 31 -57
37 -81 10z"/>
<path d="M2392 4118 c-15 -15 -16 -60 0 -76 18 -18 53 -14 73 8 27 30 10 74
-30 78 -17 2 -36 -3 -43 -10z"/>
<path d="M2602 4118 c-17 -17 -17 -269 0 -286 16 -16 65 -15 75 1 4 6 10 53
13 102 l5 90 37 3 c56 5 86 53 52 86 -19 20 -163 23 -182 4z"/>
<path d="M2291 4013 c-21 -17 -22 -25 -19 -148 3 -129 3 -129 30 -144 24 -14
28 -14 47 3 19 17 21 30 21 146 0 110 -2 129 -18 143 -23 21 -35 21 -61 0z"/>
<path d="M2500 3800 c-11 -11 -20 -27 -20 -35 0 -18 35 -55 53 -55 51 0 68 77
22 98 -33 15 -32 15 -55 -8z"/>
<path d="M2723 3810 c-15 -6 -24 -22 -30 -52 -8 -40 -11 -43 -47 -49 -40 -7
-56 -21 -56 -54 0 -27 18 -45 46 -45 39 0 54 -11 54 -39 0 -15 7 -37 16 -49
14 -21 22 -22 143 -22 116 0 130 2 146 20 15 16 17 26 9 48 -7 21 -17 28 -44
30 -46 5 -60 18 -60 58 0 37 -9 45 -60 54 -31 5 -35 9 -41 44 -4 22 -15 45
-25 53 -20 15 -21 15 -51 3z"/>
<path d="M2932 3804 c-56 -39 -4 -118 53 -80 30 20 32 49 5 76 -24 24 -29 24
-58 4z"/>
<path d="M3236 3687 c-20 -29 -10 -66 19 -73 56 -14 90 27 61 71 -21 32 -60
33 -80 2z"/>
<path d="M1542 3588 c-7 -7 -12 -43 -12 -90 0 -72 2 -79 25 -94 23 -15 27 -15
50 0 23 15 25 22 25 94 0 85 -8 102 -50 102 -14 0 -31 -5 -38 -12z"/>
<path d="M1862 3588 c-7 -7 -12 -22 -12 -34 0 -39 -11 -54 -40 -54 -15 0 -37
-8 -49 -17 -19 -17 -21 -30 -23 -158 l-3 -140 -39 -6 c-35 -6 -66 -29 -66 -50
0 -4 8 -16 18 -27 23 -27 139 -38 171 -15 19 13 21 24 21 143 0 70 3 135 6
144 5 13 23 16 88 16 86 0 109 9 120 46 9 30 -15 56 -60 63 -35 6 -39 10 -44
41 -4 20 -10 41 -14 48 -9 15 -58 16 -74 0z"/>
<path d="M2072 3588 c-28 -28 -2 -88 38 -88 40 0 66 60 38 88 -7 7 -24 12 -38
12 -14 0 -31 -5 -38 -12z"/>
<path d="M2281 3581 c-30 -54 2 -81 96 -81 58 0 73 4 88 20 15 16 17 26 9 48
-9 26 -12 27 -96 30 -78 2 -88 1 -97 -17z"/>
<path d="M3132 3588 c-28 -28 -2 -88 38 -88 40 0 66 60 38 88 -7 7 -24 12 -38
12 -14 0 -31 -5 -38 -12z"/>
<path d="M3872 3588 c-8 -8 -12 -54 -12 -139 0 -137 7 -159 54 -159 28 0 46
18 46 46 0 40 11 54 41 54 50 0 69 30 69 109 0 93 -9 101 -109 101 -46 0 -82
-5 -89 -12z"/>
<path d="M4192 3588 c-7 -7 -12 -42 -12 -89 0 -97 6 -102 119 -109 l86 -5 3
-43 c3 -44 2 -45 -50 -56 -79 -17 -73 -92 8 -105 37 -6 39 -9 44 -46 6 -49 42
-73 75 -51 19 13 20 26 23 196 3 225 7 218 -117 222 l-86 3 -3 35 c-2 19 -8
41 -14 47 -13 16 -60 17 -76 1z"/>
<path d="M2186 3487 c-10 -8 -21 -31 -25 -53 -6 -36 -9 -39 -45 -45 -41 -7
-56 -21 -56 -55 0 -28 17 -42 60 -46 32 -3 35 -6 41 -42 9 -53 30 -66 110 -66
76 0 99 14 99 59 0 34 17 51 51 51 52 0 77 51 41 83 -13 12 -42 17 -102 19
l-85 3 -6 39 c-6 37 -30 66 -54 66 -6 0 -19 -6 -29 -13z"/>
<path d="M2500 3480 c-11 -11 -20 -27 -20 -35 0 -35 38 -55 103 -55 72 0 107
18 107 55 0 37 -35 55 -107 55 -50 0 -67 -4 -83 -20z"/>
<path d="M3352 3484 c-15 -10 -22 -25 -22 -48 0 -36 -13 -46 -56 -46 -14 0
-30 -10 -40 -25 -15 -23 -15 -27 0 -50 11 -17 26 -25 44 -25 48 0 52 -13 52
-155 0 -120 2 -134 20 -150 16 -15 26 -17 48 -9 l27 9 3 239 c2 212 0 241 -14
258 -21 22 -33 23 -62 2z"/>
<path d="M2704 3365 c-15 -23 -15 -27 0 -50 l16 -25 185 0 185 0 16 25 c15 23
15 27 0 50 l-16 25 -185 0 -185 0 -16 -25z"/>
<path d="M3662 3378 c-19 -19 -16 -163 4 -182 21 -21 47 -20 67 2 23 26 24
154 1 176 -18 19 -55 21 -72 4z"/>
<path d="M4110 3282 c-29 -9 -40 -36 -40 -102 0 -38 5 -73 13 -82 22 -28 47
-29 72 -4 20 20 24 34 24 78 -1 29 -5 63 -10 75 -9 25 -38 42 -59 35z"/>
<path d="M2852 3212 c-103 -37 -171 -114 -198 -224 -16 -63 -16 -73 0 -135 28
-116 104 -197 213 -229 143 -42 298 28 365 165 33 66 33 196 0 262 -69 140
-238 212 -380 161z m244 -167 c3 -8 -1 -59 -10 -112 -26 -154 -25 -153 -48
-153 -23 0 -128 70 -128 85 0 6 22 33 50 60 27 27 48 51 46 53 -3 2 -35 -17
-73 -42 -69 -47 -100 -54 -149 -36 -24 9 -25 13 -13 24 16 16 287 133 312 135
4 1 10 -6 13 -14z"/>
<path d="M2075 3164 c-21 -21 -16 -63 10 -80 46 -31 97 35 59 77 -21 23 -47
24 -69 3z"/>
<path d="M2398 3169 c-15 -8 -18 -24 -18 -92 0 -51 5 -88 12 -95 7 -7 43 -12
90 -12 71 0 79 2 93 24 11 17 15 43 14 87 -3 85 -18 99 -106 99 -38 0 -76 -5
-85 -11z"/>
<path d="M3557 3162 c-25 -27 -24 -153 1 -175 26 -23 58 -21 76 5 24 35 22
142 -4 168 -25 25 -52 26 -73 2z"/>
<path d="M3876 3161 c-38 -42 13 -108 59 -77 26 17 31 59 10 80 -22 21 -48 20
-69 -3z"/>
<path d="M1542 3057 c-6 -6 -12 -28 -14 -47 -3 -32 -6 -35 -42 -41 -63 -10
-66 -21 -66 -214 0 -215 -4 -209 119 -213 l91 -4 0 -82 c0 -96 10 -116 66
-125 35 -6 39 -10 44 -41 10 -62 5 -60 209 -60 196 0 211 3 211 45 0 43 -15
50 -112 55 l-93 5 -3 37 c-4 43 -20 59 -70 67 -36 6 -37 7 -37 51 l0 45 50 0
c48 0 50 -1 53 -30 6 -53 26 -65 108 -65 80 0 104 13 104 55 0 28 -12 37 -59
45 -31 5 -36 9 -43 45 -12 56 -29 65 -124 65 -89 0 -94 3 -94 60 0 40 24 50
113 50 82 0 90 5 104 60 l9 35 136 5 c144 5 168 13 168 56 0 46 -30 54 -210
54 -188 0 -199 -4 -209 -66 -6 -37 -8 -39 -44 -42 -46 -4 -67 11 -67 48 0 42
-24 54 -119 60 l-86 5 -3 35 c-5 45 -18 60 -52 60 -15 0 -32 -6 -38 -13z m187
-311 c7 -8 11 -32 9 -53 l-3 -38 -100 0 -100 0 -6 38 c-9 57 6 67 105 67 60 0
87 -4 95 -14z"/>
<path d="M3766 3048 c-24 -35 -22 -142 4 -168 11 -11 27 -20 35 -20 35 0 55
38 55 103 0 72 -18 107 -55 107 -13 0 -31 -10 -39 -22z"/>
<path d="M3980 3055 c-10 -12 -14 -63 -11 -153 1 -34 43 -50 76 -28 23 15 25
22 25 91 0 54 -4 78 -16 89 -19 20 -58 21 -74 1z"/>
<path d="M4192 3058 c-19 -19 -15 -66 8 -78 11 -6 53 -10 92 -8 67 3 74 5 87
30 14 24 14 28 -3 47 -16 18 -31 21 -96 21 -46 0 -81 -5 -88 -12z"/>
<path d="M4412 2954 c-31 -22 -26 -63 10 -83 24 -14 28 -14 47 3 26 24 27 58
3 79 -23 21 -32 21 -60 1z"/>
<path d="M2391 2846 c-16 -19 -10 -66 10 -79 26 -16 68 0 75 29 12 47 -55 87
-85 50z"/>
<path d="M3557 2843 c-8 -10 -17 -31 -19 -48 -2 -24 -9 -31 -38 -40 -51 -15
-60 -23 -60 -55 0 -43 23 -50 159 -50 148 0 151 2 151 105 0 97 -8 105 -104
105 -57 0 -76 -4 -89 -17z"/>
<path d="M3880 2850 c-11 -7 -16 -35 -20 -102 l-5 -93 -39 -6 c-58 -9 -80 -46
-52 -85 13 -17 29 -19 134 -22 131 -4 158 3 168 44 9 34 -20 64 -61 64 -41 0
-45 10 -45 110 0 68 -3 81 -19 90 -24 12 -41 13 -61 0z"/>
<path d="M4085 2840 c-28 -31 -10 -74 32 -78 25 -3 35 2 49 22 15 24 15 28 0
51 -20 31 -56 33 -81 5z"/>
<path d="M4296 2838 c-21 -30 -21 -136 -1 -165 10 -14 28 -23 53 -25 l37 -3 5
-93 c5 -97 12 -112 56 -112 39 0 44 18 44 156 0 145 -1 148 -62 159 -33 6 -38
11 -38 34 0 37 -26 71 -55 71 -13 0 -31 -10 -39 -22z"/>
<path d="M2072 2738 c-28 -28 -3 -88 37 -88 23 0 51 31 51 56 0 27 -19 44 -50
44 -14 0 -31 -5 -38 -12z"/>
<path d="M2278 2724 c-21 -45 21 -87 66 -66 28 13 36 58 14 80 -22 22 -67 14
-80 -14z"/>
<path d="M2494 2738 c-4 -7 -10 -28 -14 -48 -5 -31 -9 -35 -40 -40 -50 -8 -60
-17 -60 -49 0 -34 18 -51 63 -60 l32 -7 5 -88 c4 -72 9 -90 24 -102 27 -19 42
-18 66 6 18 18 20 33 20 188 0 135 -3 172 -16 190 -17 24 -68 31 -80 10z"/>
<path d="M3351 2633 c-17 -15 -21 -31 -23 -103 l-3 -84 -40 -8 c-56 -12 -65
-28 -65 -125 0 -80 -1 -83 -25 -89 -47 -12 -70 2 -81 48 -7 34 -15 45 -37 52
-46 16 -61 -9 -67 -112 l-5 -87 -44 -3 c-28 -2 -47 1 -52 10 -14 21 -11 282 3
296 7 7 24 12 39 12 32 0 59 23 59 50 0 37 -27 50 -103 50 -40 0 -78 -4 -86
-9 -8 -5 -17 -26 -20 -47 -6 -35 -9 -39 -44 -45 -42 -7 -52 -14 -61 -45 -9
-30 15 -56 60 -63 37 -6 39 -8 42 -44 4 -47 -11 -67 -49 -67 -19 0 -34 -8 -45
-25 -15 -23 -15 -27 0 -49 11 -18 27 -26 53 -28 36 -3 38 -5 41 -40 5 -57 18
-62 176 -68 l141 -5 3 -35 c5 -46 16 -58 60 -62 34 -3 37 -6 43 -42 6 -37 30
-66 54 -66 24 0 48 29 54 66 6 37 8 39 45 42 46 4 57 -5 62 -49 2 -18 9 -38
15 -44 6 -6 90 -12 207 -15 l197 -5 3 -35 c5 -45 18 -60 51 -60 33 0 51 17 51
46 0 39 11 54 39 54 42 0 71 26 71 64 0 36 13 46 56 46 14 0 30 10 40 25 15
23 15 27 0 50 -10 15 -26 25 -40 25 -53 0 -56 6 -56 104 0 100 7 116 51 116
41 0 53 24 59 119 l5 86 35 5 c20 4 41 10 48 14 20 12 15 64 -7 76 -24 13
-151 13 -171 0 -11 -7 -16 -35 -20 -102 l-5 -93 -38 -3 c-47 -4 -67 11 -67 49
0 19 -8 34 -25 45 -23 15 -27 15 -50 0 -16 -11 -25 -26 -25 -44 0 -49 -9 -53
-110 -50 l-94 3 -8 40 c-18 86 -93 85 -107 -1 -6 -35 -10 -39 -41 -44 -49 -8
-60 -17 -60 -49 0 -34 17 -51 51 -51 36 0 51 -21 47 -67 l-3 -38 -86 -5 c-98
-6 -119 -17 -119 -65 0 -35 -13 -45 -59 -45 -34 0 -51 17 -51 51 0 46 10 59
45 59 48 0 59 21 65 119 l5 86 30 3 c59 7 65 22 65 162 0 110 -2 129 -18 143
-23 21 -35 21 -61 0z m606 -415 c9 -15 15 -270 7 -293 -5 -12 -32 -15 -160
-15 l-154 0 0 154 c0 114 3 156 13 159 6 3 74 6 149 6 99 1 139 -2 145 -11z"/>
<path d="M3769 2099 c-22 -22 -19 -55 9 -77 27 -21 82 9 82 45 0 18 -37 53
-55 53 -8 0 -24 -9 -36 -21z"/>
<path d="M2286 2524 c-12 -11 -16 -35 -16 -89 0 -65 3 -76 22 -89 28 -20 43
-20 62 0 20 19 23 163 4 182 -17 17 -54 15 -72 -4z"/>
<path d="M3132 2528 c-22 -22 -14 -67 13 -80 53 -24 92 21 65 73 -12 22 -59
26 -78 7z"/>
<path d="M1437 2312 c-21 -23 -22 -46 -1 -66 19 -20 163 -23 182 -4 18 18 15
53 -6 71 -27 25 -153 24 -175 -1z"/>
<path d="M2398 2318 c-42 -34 -18 -91 35 -86 42 4 60 47 32 78 -21 23 -44 26
-67 8z"/>
<path d="M2606 2314 c-19 -18 -21 -55 -4 -72 7 -7 24 -12 38 -12 14 0 31 5 38
12 28 28 2 88 -38 88 -10 0 -26 -7 -34 -16z"/>
<path d="M4296 2308 c-9 -12 -16 -28 -16 -34 0 -19 35 -44 61 -44 46 0 49 -12
49 -210 0 -168 2 -189 18 -203 23 -21 46 -22 66 -1 14 13 16 50 16 254 0 277
7 260 -109 260 -61 0 -72 -3 -85 -22z"/>
<path d="M2282 2208 c-18 -18 -14 -53 8 -73 44 -40 107 25 69 71 -14 17 -60
19 -77 2z"/>
<path d="M2496 2204 c-13 -12 -16 -41 -16 -149 0 -88 -4 -136 -11 -141 -6 -4
-44 -6 -85 -5 -62 1 -76 -1 -94 -19 -11 -11 -20 -28 -20 -39 0 -33 29 -46 119
-51 l86 -5 6 -38 c8 -48 19 -59 55 -55 44 5 54 37 54 163 -1 61 -1 118 -1 128
1 12 9 17 29 17 38 0 72 26 72 55 0 29 -34 55 -72 55 -27 0 -33 8 -29 38 1 8
-5 24 -14 38 -18 28 -56 32 -79 8z"/>
<path d="M4192 2208 c-20 -20 -15 -66 9 -78 47 -26 100 25 72 69 -13 20 -64
26 -81 9z"/>
<path d="M1611 2140 c-57 -12 -114 -51 -146 -98 -37 -56 -47 -135 -43 -317 5
-180 14 -214 75 -277 60 -62 102 -70 331 -66 l199 3 49 30 c30 19 60 49 79 79
l30 49 3 186 c5 225 -4 272 -58 334 -63 71 -96 80 -300 83 -96 2 -195 -1 -219
-6z m404 -114 c62 -26 70 -56 70 -266 0 -203 -4 -219 -62 -257 -24 -16 -52
-18 -218 -18 -182 0 -191 1 -222 23 -48 34 -55 72 -51 279 3 178 4 182 28 208
14 15 34 31 45 35 36 16 372 12 410 -4z"/>
<path d="M1703 1929 c-56 -17 -68 -48 -68 -172 l0 -109 33 -29 c31 -28 36 -29
133 -29 163 0 183 22 177 189 -3 93 -5 103 -30 127 -24 24 -34 27 -120 30 -51
2 -108 -1 -125 -7z"/>
<path d="M2718 1898 c-28 -22 -31 -55 -9 -77 12 -12 28 -21 36 -21 18 0 55 35
55 53 0 36 -55 66 -82 45z"/>
<path d="M2930 1892 c-20 -16 -22 -27 -21 -90 2 -91 -9 -112 -54 -112 -38 0
-46 -9 -55 -60 l-5 -35 -155 0 -155 0 -5 35 c-8 49 -17 60 -49 60 -33 0 -51
-16 -51 -46 0 -39 -11 -54 -39 -54 -37 0 -71 -26 -71 -55 0 -29 34 -55 72 -55
16 0 29 -3 29 -7 1 -5 3 -21 5 -36 4 -37 21 -57 48 -57 34 0 48 15 55 56 l6
39 50 0 c50 0 50 0 53 -35 5 -45 18 -60 52 -60 34 0 47 15 52 60 3 35 3 35 53
35 l50 0 6 -39 c3 -21 12 -42 20 -47 8 -5 46 -9 84 -9 39 0 76 4 84 9 8 5 17
26 20 47 6 35 9 39 44 45 47 8 54 15 65 64 8 39 9 40 52 40 l45 0 0 -50 c0
-49 0 -50 -35 -55 -49 -8 -60 -17 -60 -49 0 -43 17 -51 100 -51 107 0 110 4
110 158 0 96 -3 124 -16 136 -12 13 -41 16 -148 16 -89 0 -136 4 -144 12 -7 7
-12 43 -12 90 0 65 -3 81 -20 98 -25 25 -32 25 -60 2z"/>
<path d="M4296 1778 c-13 -18 -16 -54 -16 -188 0 -134 3 -170 16 -188 30 -44
89 -18 96 43 2 24 9 30 35 36 56 11 63 23 63 108 0 82 -9 101 -46 101 -39 0
-54 11 -54 39 0 37 -26 71 -55 71 -13 0 -31 -10 -39 -22z"/>
<path d="M3452 1678 c-7 -7 -12 -42 -12 -89 0 -85 7 -97 62 -108 29 -6 34 -12
39 -45 3 -21 12 -42 20 -47 22 -14 165 -11 177 4 6 6 12 28 14 47 l3 35 85 3
c91 3 120 17 120 57 0 37 -27 50 -119 55 l-86 5 -5 35 c-4 20 -10 41 -14 48
-10 17 -267 17 -284 0z"/>
<path d="M4090 1680 c-11 -7 -16 -35 -20 -102 l-5 -93 -35 -3 c-45 -5 -60 -18
-60 -52 0 -43 19 -51 106 -48 72 3 79 5 91 28 19 38 17 229 -3 258 -16 23 -48
28 -74 12z"/>
<path d="M1193 1096 c-62 -28 -89 -114 -57 -181 25 -54 113 -90 168 -69 27 10
7 24 -35 24 -81 0 -128 52 -116 126 11 68 75 106 142 84 56 -18 88 -109 50
-140 -18 -15 -23 -5 -27 55 -3 39 -3 39 -47 42 -72 5 -105 -48 -65 -105 15
-22 58 -30 69 -12 4 6 12 6 24 -2 28 -17 67 -2 81 32 30 72 -23 150 -107 157
-28 2 -61 -3 -80 -11z m82 -121 c0 -23 -5 -31 -22 -33 -14 -2 -23 3 -25 15 -7
33 3 54 26 51 16 -2 21 -10 21 -33z"/>
<path d="M1434 1097 c-2 -7 -3 -60 -2 -118 2 -84 6 -104 18 -104 10 0 16 12
18 36 3 35 4 37 50 42 79 9 110 80 57 132 -20 21 -34 25 -80 25 -37 0 -57 -4
-61 -13z m114 -61 c4 -33 -10 -46 -50 -46 -26 0 -28 3 -28 41 l0 40 38 -3 c33
-3 37 -6 40 -32z"/>
<path d="M1647 1103 c-4 -3 -7 -55 -7 -114 0 -85 3 -108 15 -113 18 -6 31 19
29 57 -1 22 3 27 22 27 17 0 30 -11 46 -40 13 -22 29 -42 36 -45 21 -8 26 25
8 62 -16 33 -16 36 1 48 11 8 17 26 17 50 0 54 -30 75 -103 75 -32 0 -61 -3
-64 -7z m114 -49 c20 -24 -1 -48 -44 -52 -36 -3 -36 -3 -35 32 1 34 3 36 33
36 18 0 38 -7 46 -16z"/>
<path d="M1858 1003 c-2 -79 0 -110 10 -120 25 -25 32 -2 32 113 0 106 -1 114
-19 114 -18 0 -20 -9 -23 -107z"/>
<path d="M1950 996 c0 -63 4 -117 8 -120 20 -12 31 15 34 83 l3 74 50 -72 c48
-71 76 -97 89 -84 3 3 6 57 6 120 0 106 -1 113 -20 113 -17 0 -19 -8 -22 -77
l-3 -78 -54 78 c-34 48 -62 77 -73 77 -16 0 -18 -11 -18 -114z"/>
<path d="M2185 1100 c-11 -17 5 -30 36 -30 l29 0 0 -94 c0 -71 3 -95 14 -99
27 -10 36 17 36 104 l0 88 33 3 c20 2 32 8 32 18 0 12 -18 16 -87 18 -52 2
-89 -1 -93 -8z"/>
<path d="M2429 1095 c-35 -19 -53 -65 -47 -120 6 -53 21 -73 66 -92 39 -16 99
-4 127 27 23 25 31 101 15 140 -23 54 -103 77 -161 45z m103 -42 c42 -38 12
-143 -42 -143 -52 0 -83 98 -43 142 20 22 61 23 85 1z"/>
<path d="M2647 1104 c-8 -9 -10 -218 -1 -227 3 -3 12 -3 20 0 10 4 14 25 15
77 l1 71 34 -73 c44 -94 49 -93 98 18 l24 55 1 -71 c1 -55 5 -73 16 -78 23 -8
26 9 23 125 -3 102 -4 104 -26 104 -20 0 -29 -12 -55 -77 -18 -43 -34 -78 -37
-78 -3 0 -19 35 -35 78 -23 57 -36 78 -51 80 -11 2 -23 0 -27 -4z"/>
<path d="M2996 1102 c-8 -13 -76 -203 -76 -212 0 -4 7 -11 16 -14 10 -4 21 4
32 24 15 26 23 30 59 30 37 0 43 -3 49 -24 7 -29 28 -40 44 -21 8 10 1 38 -28
116 -34 92 -42 104 -64 107 -15 2 -29 -1 -32 -6z m54 -114 c0 -13 -8 -18 -29
-18 l-30 0 16 47 17 48 12 -30 c7 -17 13 -38 14 -47z"/>
<path d="M3125 1100 c-11 -17 5 -30 36 -30 l29 0 0 -88 c0 -88 9 -115 36 -105
11 4 14 28 14 98 l0 94 33 3 c20 2 32 8 32 18 0 12 -18 16 -87 18 -52 2 -89
-1 -93 -8z"/>
<path d="M3347 1103 c-4 -3 -7 -55 -7 -114 0 -82 3 -108 14 -112 21 -8 36 14
36 55 l0 38 46 0 c38 0 45 3 42 18 -2 12 -15 18 -46 20 -39 3 -42 5 -42 32 0
27 3 29 47 32 36 2 49 7 51 21 3 15 -5 17 -66 17 -38 0 -72 -3 -75 -7z"/>
<path d="M3576 1102 c-3 -5 -22 -55 -42 -112 -29 -82 -34 -104 -23 -111 16 -9
36 5 44 32 5 15 16 19 48 19 36 0 44 -4 59 -30 11 -20 22 -28 32 -24 21 8 20
14 -22 129 -33 89 -40 100 -64 103 -14 2 -29 -1 -32 -6z m54 -114 c0 -13 -8
-18 -29 -18 l-30 0 16 47 17 48 12 -30 c7 -17 13 -38 14 -47z"/>
<path d="M3705 1100 c-11 -17 5 -30 36 -30 l29 0 0 -88 c0 -88 9 -115 36 -105
11 4 14 28 14 98 l0 94 33 3 c20 2 32 8 32 18 0 12 -18 16 -87 18 -52 2 -89
-1 -93 -8z"/>
<path d="M3920 997 c0 -88 3 -116 14 -120 22 -9 36 14 36 60 l0 43 50 0 50 0
0 -44 c0 -44 19 -74 40 -61 6 4 10 52 10 121 0 105 -1 114 -19 114 -22 0 -31
-19 -31 -64 0 -32 -1 -32 -49 -35 l-50 -2 -3 48 c-3 41 -6 48 -25 51 -23 3
-23 2 -23 -111z"/>
<path d="M4174 1097 c-2 -7 -3 -58 -2 -113 l3 -99 69 -3 c41 -2 74 2 80 8 16
16 -11 30 -61 30 -41 0 -43 1 -43 30 0 29 1 30 50 30 38 0 50 4 50 15 0 11
-12 15 -50 15 -49 0 -50 1 -50 29 0 29 2 30 53 33 38 2 52 7 52 18 0 21 -143
28 -151 7z"/>
<path d="M4367 1103 c-4 -3 -7 -52 -7 -108 0 -78 4 -105 15 -115 22 -18 35 -3
35 41 0 34 3 39 23 39 15 0 28 -11 41 -35 26 -47 43 -62 58 -47 8 8 7 22 -7
52 -17 37 -17 41 -2 58 26 29 22 77 -9 101 -20 16 -41 21 -84 21 -31 0 -60 -3
-63 -7z m118 -68 c0 -27 -3 -30 -37 -33 -38 -3 -38 -3 -38 33 0 36 0 36 38 33
34 -3 37 -6 37 -33z"/>
<path d="M4588 1011 c-4 -139 -9 -131 73 -131 56 0 73 4 89 20 27 27 25 57 -3
82 -23 21 -23 22 -5 40 23 23 23 43 -2 68 -16 16 -33 20 -84 20 l-65 0 -3 -99z
m118 44 c9 -23 -15 -45 -47 -45 -26 0 -29 4 -29 30 0 28 3 30 35 30 23 0 38
-6 41 -15z m8 -98 c14 -23 -15 -47 -56 -47 -25 0 -28 3 -28 36 0 34 1 35 36
32 22 -2 41 -10 48 -21z"/>
<path d="M2794 711 c-59 -25 -83 -116 -49 -182 30 -57 115 -67 167 -20 30 27
33 34 33 90 0 52 -4 64 -26 87 -28 28 -89 40 -125 25z m86 -51 c43 -43 16
-140 -39 -140 -40 0 -66 33 -65 81 2 70 60 103 104 59z"/>
<path d="M2971 711 c-20 -13 -4 -31 29 -31 l29 0 3 -97 c3 -90 5 -98 23 -98
18 0 20 8 23 98 l3 97 29 0 c33 0 49 18 29 31 -18 11 -150 11 -168 0z"/>
</g>
</svg>
